<svg id="Layer_1" enable-background="new 0 0 512 512" height="512" viewBox="0 0 512 512" width="512" xmlns="http://www.w3.org/2000/svg"><path d="m289.017 512h-147c-66.168 0-120-53.832-120-120v-272c0-66.168 53.832-120 120-120h184c66.168 0 120 53.832 120 120v147c0 11.046-8.954 20-20 20s-20-8.954-20-20v-147c0-44.112-35.888-80-80-80h-184c-44.112 0-80 35.888-80 80v272c0 44.112 35.888 80 80 80h147c11.046 0 20 8.954 20 20s-8.954 20-20 20zm179.619-21.381c28.463-28.462 28.463-74.775 0-103.237l-70.109-70.109c-20.262-20.262-45.825-33.941-73.926-39.559l-56.664-11.326c-6.555-1.309-13.333.742-18.062 5.47-4.728 4.728-6.78 11.505-5.47 18.062l11.326 56.665c5.617 28.1 19.296 53.663 39.558 73.925l70.109 70.109c14.231 14.231 32.925 21.347 51.619 21.347s37.387-7.116 51.619-21.347zm-151.876-173.681c20.33 4.063 38.824 13.959 53.482 28.618l70.109 70.109c6.233 6.233 9.666 14.52 9.666 23.334s-3.433 17.102-9.666 23.334-14.519 9.667-23.334 9.667-17.102-3.433-23.334-9.666l-70.109-70.109c-14.659-14.659-24.555-33.152-28.618-53.481l-5.448-27.253zm48.257-132.938c0-11.046-8.954-20-20-20h-34c-16.542 0-30-13.458-30-30v-34c0-11.046-8.954-20-20-20s-20 8.954-20 20v34c0 38.598 31.402 70 70 70h34c11.046 0 20-8.954 20-20zm-163 78h-52c-11.046 0-20-8.954-20-20s8.954-20 20-20h52c11.046 0 20 8.954 20 20s-8.954 20-20 20zm10 60c0-11.046-8.954-20-20-20h-42c-11.046 0-20 8.954-20 20s8.954 20 20 20h42c11.046 0 20-8.954 20-20zm24 80c0-11.046-8.954-20-20-20h-66c-11.046 0-20 8.954-20 20s8.954 20 20 20h66c11.046 0 20-8.954 20-20z"/></svg>