<svg id="Layer" enable-background="new 0 0 512 512" height="512" viewBox="0 0 512 512" width="512" xmlns="http://www.w3.org/2000/svg"><path d="m344 120h-176c-9.484 0-18.08-5.586-21.932-14.253l-32-72c-3.299-7.424-2.619-16.013 1.808-22.825s12-10.922 20.124-10.922h240c8.124 0 15.697 4.11 20.124 10.922 4.427 6.813 5.107 15.401 1.808 22.825l-32 72c-3.853 8.667-12.448 14.253-21.932 14.253z"/><path d="m24.001 400c-4.575 0-9.126-1.307-13.08-3.876-6.811-4.427-10.921-12-10.921-20.124v-240c0-8.124 4.11-15.697 10.922-20.124 6.813-4.425 15.402-5.106 22.826-1.808l72 32c8.667 3.853 14.252 12.448 14.252 21.932v176c0 9.484-5.585 18.079-14.252 21.932l-72 32c-3.116 1.384-6.438 2.068-9.747 2.068z"/><path d="m376 512h-240c-8.124 0-15.697-4.11-20.124-10.922-4.427-6.813-5.107-15.401-1.808-22.825l32-72c3.852-8.667 12.448-14.253 21.932-14.253h176c9.484 0 18.079 5.586 21.932 14.253l32 72c3.3 7.424 2.619 16.013-1.808 22.825s-12 10.922-20.124 10.922z"/><path d="m487.998 400c-3.309 0-6.629-.684-9.745-2.068l-72-32c-8.667-3.853-14.253-12.448-14.253-21.932v-176c0-9.484 5.586-18.079 14.253-21.932l72-32c7.424-3.3 16.014-2.62 22.825 1.808 6.812 4.427 10.922 12 10.922 20.124v240c0 8.124-4.11 15.697-10.922 20.124-3.953 2.568-8.505 3.876-13.08 3.876z"/><path d="m326 152h-140c-18.748 0-34 15.252-34 34v140c0 18.748 15.252 34 34 34h140c18.748 0 34-15.252 34-34v-140c0-18.748-15.252-34-34-34zm-70 136c-17.645 0-32-14.355-32-32s14.355-32 32-32 32 14.355 32 32-14.355 32-32 32z"/></svg>