<svg xmlns="http://www.w3.org/2000/svg" viewBox="0 0 325.45 189.67"><defs><style>.cls-1{fill:#1d1d1b;}</style></defs><g id="Calque_2" data-name="Calque 2"><g id="Calque_1-2" data-name="Calque 1"><path class="cls-1" d="M66.48,70V0H105l21,21H87.48V49h49V45.5h-42l21-21h42V70Zm63-49-21-21h14l21,21ZM154,21,133,0h3.49l21,21Z"/><path class="cls-1" d="M220.47,70l-21-21H238V21H189V45.5H168V0h91V70ZM189,70,168,49h3.49l21,21Zm14,0L182,49h14l21,21Z"/><path class="cls-1" d="M0,102.2V98.69l21,21v3.51Zm0,24.48v-14l21,21v14Zm0,52.5v-49l21,21v7H91v21Z"/><path class="cls-1" d="M101.49,137.19v-28h21v49Zm0,17.51v-14l21,21v14Zm0,14v-3.51l21,21v3.49Z"/><path class="cls-1" d="M133,102.2V98.69l21,21v3.51Zm0,42v-14l21,21V147.7l-21-21v-14l45.5,45.5L203,133.68V109.2h21v35l-45.5,45.48Z"/><path class="cls-1" d="M234.45,179.18v-70h38.48l21,21h-38.5v28h49l21,21Zm24.49-24.48,21-21h45.5v21Zm38.5-24.51-21-21h14l21,21Zm24.5,0-21-21h3.49l21,21Z"/></g></g></svg>