<svg xmlns="http://www.w3.org/2000/svg" viewBox="0 0 325.45 340.16"><defs><style>.cls-1{fill:#fff;}.cls-2{fill:#010101;}.cls-3{fill:#1d1d1b;}</style></defs><g id="Calque_2" data-name="Calque 2"><g id="Calque_1-2" data-name="Calque 1"><polygon class="cls-1" points="246.06 108.33 212.73 141.67 179.39 141.67 150.23 170.83 150.23 141.67 112.73 141.67 112.73 16.67 246.06 16.67 246.06 108.33"/><g id="Layer_1-2" data-name="Layer 1-2"><path class="cls-2" d="M104.39,0,62.73,41.67v150h50v41.66l41.66-41.66h33.34l75-75V0ZM246.06,108.33l-33.33,33.34H179.39l-29.16,29.16V141.67h-37.5v-125H246.06Z"/><rect class="cls-2" x="204.39" y="45.83" width="16.67" height="50"/><rect class="cls-2" x="158.56" y="45.83" width="16.67" height="50"/></g><path class="cls-3" d="M0,252.69v-3.51l21,21v3.51Zm0,24.48v-14l21,21v14Zm0,52.5v-49l21,21v7H91v21Z"/><path class="cls-3" d="M101.49,287.68v-28h21v49Zm0,17.51v-14l21,21v14Zm0,14v-3.51l21,21v3.49Z"/><path class="cls-3" d="M133,252.69v-3.51l21,21v3.51Zm0,42v-14l21,21v-3.49l-21-21v-14l45.5,45.5L203,284.17V259.69h21v35l-45.5,45.48Z"/><path class="cls-3" d="M234.45,329.67v-70h38.48l21,21h-38.5v28h49l21,21Zm24.49-24.48,21-21h45.5v21Zm38.5-24.51-21-21h14l21,21Zm24.5,0-21-21h3.49l21,21Z"/></g></g></svg>