<svg xmlns="http://www.w3.org/2000/svg" viewBox="0 0 325.45 90.98"><defs><style>.cls-1{fill:#1d1d1b;}</style></defs><g id="Calque_2" data-name="Calque 2"><g id="Calque_1-2" data-name="Calque 1"><path class="cls-1" d="M0,3.51V0L21,21v3.5ZM0,28V14L21,35V49Zm0,52.5v-49l21,21v7H91v21Z"/><path class="cls-1" d="M101.49,38.5v-28h21v49Zm0,17.51V42l21,21V77Zm0,14V66.5l21,21V91Z"/><path class="cls-1" d="M133,3.51V0l21,21v3.5Zm0,42v-14l21,21V49L133,28V14l45.5,45.5L203,35V10.51h21v35L178.47,91Z"/><path class="cls-1" d="M234.45,80.49v-70h38.48l21,21h-38.5v28h49l21,21ZM258.94,56l21-21h45.5V56Zm38.5-24.51-21-21h14l21,21Zm24.5,0-21-21h3.49l21,21Z"/></g></g></svg>